<?xml version="1.0" standalone="no"?>
<!DOCTYPE svg PUBLIC "-//W3C//DTD SVG 20010904//EN"
 "http://www.w3.org/TR/2001/REC-SVG-20010904/DTD/svg10.dtd">
<svg version="1.0" xmlns="http://www.w3.org/2000/svg"
 width="500.000000pt" height="500.000000pt" viewBox="0 0 500.000000 500.000000"
 preserveAspectRatio="xMidYMid meet">
<metadata>
Created by potrace 1.11, written by Peter Selinger 2001-2013
</metadata>
<g transform="translate(0.000000,500.000000) scale(0.100000,-0.100000)"
fill="#000000" stroke="none">
<path d="M2540 4484 c-14 -2 -65 -9 -115 -15 -119 -15 -328 -68 -446 -115
-663 -261 -1112 -844 -1219 -1584 -68 -477 -7 -922 179 -1305 301 -618 902
-965 1611 -931 257 13 514 62 951 181 151 41 298 78 327 81 l52 7 0 632 0 633
23 5 c12 3 79 13 150 23 l127 18 0 123 0 123 -695 0 -695 0 0 -123 0 -123 278
-17 c152 -10 287 -20 300 -23 l22 -4 0 -509 0 -509 -37 -33 c-149 -130 -352
-199 -650 -218 -169 -12 -315 0 -449 34 -558 145 -932 699 -1003 1485 -56 613
109 1162 454 1505 198 199 425 317 690 361 138 22 460 15 630 -15 188 -33 371
-98 398 -142 4 -8 36 -104 71 -214 l62 -200 131 -3 131 -3 6 53 c13 125 37
661 29 668 -12 11 -279 76 -408 100 -200 36 -366 51 -625 55 -140 2 -266 2
-280 -1z"/>
</g>
</svg>
