<?xml version="1.0" encoding="UTF-8" standalone="no"?>
<!DOCTYPE svg PUBLIC "-//W3C//DTD SVG 1.1//EN" "http://www.w3.org/Graphics/SVG/1.1/DTD/svg11.dtd">
<svg width="100%" height="100%" viewBox="0 0 591 147" version="1.1" xmlns="http://www.w3.org/2000/svg" xmlns:xlink="http://www.w3.org/1999/xlink" xml:space="preserve" xmlns:serif="http://www.serif.com/" style="fill-rule:evenodd;clip-rule:evenodd;stroke-linejoin:round;stroke-miterlimit:1.41421;">
    <g transform="matrix(1,0,0,1,-350.4,-418.2)">
        <g transform="matrix(1,0,0,1,0,91)">
            <g transform="matrix(1,0,0,0.302376,62.5,296.436)">
                <g transform="matrix(1,0,0,3.30714,0,-256.093)">
                    <path d="M363.5,253.8C340.7,253.8 322.4,247.233 308.6,234.1C294.8,220.967 287.9,203.233 287.9,180.9C287.9,158.567 294.8,140.867 308.6,127.8C322.4,114.733 341.1,108.2 364.7,108.2C375.367,108.2 385.7,109.233 395.7,111.3C405.7,113.367 413.767,115.933 419.9,119L420.3,153.4L418.5,153.4C415.033,140.467 409.1,131.1 400.7,125.3C392.3,119.5 382.3,116.6 370.7,116.6C354.567,116.6 342.167,122.367 333.5,133.9C324.833,145.433 320.5,161.233 320.5,181.3C320.5,201.367 324.467,217.067 332.4,228.4C340.333,239.733 351.567,245.4 366.1,245.4C376.633,245.4 385.433,242.4 392.5,236.4C395.967,233.333 398.5,229.733 400.1,225.6L400.1,195C400.1,192.067 399.2,189.833 397.4,188.3C395.6,186.767 393.033,186 389.7,186L386.5,186L386.5,184L442.7,184L442.7,186L439.7,186C436.5,186 434.033,186.767 432.3,188.3C430.567,189.833 429.7,192.067 429.7,195L429.7,228C424.5,234.8 415.9,240.8 403.9,246C391.9,251.2 378.433,253.8 363.5,253.8Z" style="fill:rgb(74,144,226);fill-rule:nonzero;"/>
                </g>
                <g transform="matrix(1,0,0,3.30714,-3,-256.093)">
                    <path d="M635.5,249L638.7,249L638.7,251L578.7,251L578.7,249.2L581.7,249.2C583.967,249.067 585.9,248.133 587.5,246.4C589.1,244.667 589.767,242.733 589.5,240.6L581.7,168L544.1,232.8C539.167,241.067 536.633,248.467 536.5,255L534.5,255L483.1,168.6L475.3,240.6C475.033,242.733 475.7,244.7 477.3,246.5C478.9,248.3 480.833,249.2 483.1,249.2L486.1,249.2L486.1,251L444.3,251L444.3,249L447.5,249C451.233,249 454.467,247.867 457.2,245.6C459.933,243.333 461.567,240.267 462.1,236.4L478.7,108.2L480.5,108.2L542.5,210.2L602.1,108.2L603.9,108.2L620.9,236.4C621.567,240.267 623.267,243.333 626,245.6C628.733,247.867 631.9,249 635.5,249Z" style="fill:rgb(74,144,226);fill-rule:nonzero;"/>
                </g>
                <g transform="matrix(1,0,0,3.30714,11,-256.093)">
                    <path d="M809.7,249C813.167,249 815.833,248.133 817.7,246.4C820.767,243.333 822.367,240.067 822.5,236.6L822.5,185.6L757.7,185.6L757.7,236.4C757.7,239.867 758.967,242.833 761.5,245.3C764.033,247.767 767.033,249 770.5,249L772.9,249L773.1,251L712.3,251L712.3,249L714.9,249C718.367,249 721.333,247.767 723.8,245.3C726.267,242.833 727.567,239.867 727.7,236.4L727.7,125.6C727.567,122.133 726.267,119.167 723.8,116.7C721.333,114.233 718.367,113 714.9,113L712.3,113L712.3,111L773.1,111L772.9,113L770.5,113C767.033,113 764.033,114.233 761.5,116.7C758.967,119.167 757.7,122.133 757.7,125.6L757.7,177L822.5,177L822.5,125.6C822.367,122.133 821.067,119.167 818.6,116.7C816.133,114.233 813.167,113 809.7,113L807.1,113L807.1,111L867.9,111L867.9,113L865.3,113C861.833,113 858.833,114.233 856.3,116.7C853.767,119.167 852.5,122.133 852.5,125.6L852.5,236.4C852.5,239.867 853.767,242.833 856.3,245.3C858.833,247.767 861.833,249 865.3,249L867.9,249L867.9,251L807.1,251L807.1,249L809.7,249Z" style="fill:rgb(74,144,226);fill-rule:nonzero;"/>
                </g>
            </g>
            <g transform="matrix(1.39269,0,0,1,121.916,-246)">
                <g transform="matrix(1.42857,0,0,1.79286,-613.4,-8.77935)">
                    <ellipse cx="741.3" cy="332" rx="6.3" ry="7" style="fill:white;"/>
                </g>
                <g transform="matrix(1,0,0,-1,-281.9,1284.7)">
                    <path d="M732.5,635.4L729.941,663.4L724.708,663.449L722.3,635.4L719.9,575.6L734.9,575.6L732.5,635.4Z" style="fill:white;fill-rule:nonzero;"/>
                </g>
                <g transform="matrix(1,0,0,1,-282,-1.13687e-13)">
                    <path d="M708.3,714C711.767,714 714.733,712.767 717.2,710.3C719.667,707.833 720.967,704.867 721.1,701.4L734.1,701.4C734.1,704.867 735.367,707.833 737.9,710.3C740.433,712.767 743.433,714 746.9,714L749.5,714L749.5,716L705.7,716L705.7,714L708.3,714Z" style="fill:white;fill-rule:nonzero;"/>
                </g>
            </g>
        </g>
    </g>
</svg>
